<svg id="visual" viewBox="0 0 900 450" width="500" height="450" xmlns="http://www.w3.org/2000/svg" xmlns:xlink="http://www.w3.org/1999/xlink" version="1.1"><rect x="0" y="0" width="0" height="0" fill="#4682B4"></rect><path d="M0 130L50 152C100 174 200 218 300 229.8C400 241.7 500 221.3 600 231.3C700 241.3 800 281.7 850 301.8L900 322L900 451L850 451C800 451 700 451 600 451C500 451 400 451 300 451C200 451 100 451 50 451L0 451Z" fill="hsl(0, 0%, 12%)"></path><path d="M0 243L50 241.8C100 240.7 200 238.3 300 265.2C400 292 500 348 600 373C700 398 800 392 850 389L900 386L900 451L850 451C800 451 700 451 600 451C500 451 400 451 300 451C200 451 100 451 50 451L0 451Z" fill="#B0E0E6"></path></svg>